<?xml version="1.0" encoding="UTF-8"?><svg id="Layer_1" xmlns="http://www.w3.org/2000/svg" viewBox="0 0 2133.37 183.55"><defs><style>.cls-1{fill:#000;stroke-width:0px;}</style></defs><polygon class="cls-1" points="2.78 21.41 38.28 21.41 38.28 177.75 77.58 177.75 77.58 21.41 113.21 21.41 113.21 6.35 2.78 6.35 2.78 21.41"/><polygon class="cls-1" points="201.26 80.17 163.92 80.17 163.92 6.35 124.62 6.35 124.62 177.75 163.92 177.75 163.92 95.11 201.26 95.11 201.26 177.75 240.56 177.75 240.56 6.35 201.26 6.35 201.26 80.17"/><polygon class="cls-1" points="299.1 95.6 335.44 95.6 335.44 82.13 299.1 82.13 299.1 21.41 339.97 21.41 339.97 6.35 259.8 6.35 259.8 177.75 342.17 177.75 342.17 162.69 299.1 162.69 299.1 95.6"/><path class="cls-1" d="M467.47,82.99l-18.73-12.24c-19.84-13.1-25.1-22.53-25.1-35.14s6.61-19.34,17.14-19.34c14.45,0,20.2,10.65,20.2,44.08l36.24-4.41c-.49-35.5-17.87-52.77-55.22-52.77-34.03,0-53.99,16.77-54.11,46.16-.12,24.36,13.59,36.85,32.2,49.46l18,12.24c18.36,12.49,25.71,22.89,25.71,36.73,0,12.73-6.98,19.96-18.49,19.96-15.43,0-21.55-11.39-21.67-47.14l-38.45,4.77c.74,37.71,19.47,55.58,57.67,55.58s57.91-19.1,57.91-48.6c0-25.1-14.81-37.22-33.3-49.34Z"/><path class="cls-1" d="M574.49,3.16c-41.38,0-62.32,24.24-62.32,73.46v31.1c0,48.97,20.94,73.21,62.32,73.21s62.32-24.24,62.32-73.21v-31.1c0-49.22-20.81-73.46-62.32-73.46ZM596.65,128.9c0,26.94-6.73,38.08-22.04,38.08s-22.16-11.14-22.16-38.08V56.79c0-28.04,6.73-39.79,22.04-39.79s22.16,11.75,22.16,39.79v72.11Z"/><path class="cls-1" d="M768.02,69.34c-.37-48.36-20.33-66.73-58.15-66.73-40.28,0-59.99,24.24-59.99,73.34v31.1c0,49.09,19.71,73.34,59.99,73.34,37.83,0,57.79-20.46,58.15-68.82h-37.64v2.82c-.12,45.06-6.19,52.17-20.39,52.17s-20.32-11.75-20.32-41.87V58.32c0-30.12,6.61-41.87,20.32-41.87s20.08,5.13,20.2,50.19v2.74l37.83-.03Z"/><rect class="cls-1" x="783.77" y="6.35" width="39.3" height="171.4"/><path class="cls-1" d="M872.06,6.35l-38.32,171.4h17.38l7.1-33.42h45.91l6.86,33.42h40.89L913.19,6.35h-41.14ZM861.04,130.74l11.63-54.85c3.18-15.3,5.51-27.79,7.47-41.5h2.57c1.84,13.71,4.04,26.2,7.22,41.5l11.39,54.85h-40.28Z"/><polygon class="cls-1" points="1001.85 6.35 962.55 6.35 962.55 177.75 1052.05 177.75 1052.05 162.69 1001.85 162.69 1001.85 6.35"/><path class="cls-1" d="M1178.06,89.23v-2.45c23.14-2.69,31.71-13.59,31.71-34.4v-7.59c0-26.08-15.06-38.44-46.52-38.44h-65.38v171.4h67.34c32.81,0,48.73-13.59,48.73-41.99v-8.81c0-22.89-9.43-34.65-35.87-37.71ZM1137.16,20.8h13.1c14.45,0,20.69,7.35,20.69,24v13.47c0,16.41-6.24,23.63-20.69,23.63h-13.1V20.8ZM1172.79,136.37c0,18.61-6.49,26.81-21.43,26.81h-14.2v-68.68h14.2c14.94,0,21.43,7.96,21.43,26.32v15.55Z"/><path class="cls-1" d="M1316.3,130.25c0,19.71-8.32,29.75-24.61,29.75s-24.73-10.04-24.73-29.75V6.35h-39.18v125.49c0,32.57,18,49.09,53.26,49.09s53.14-16.53,53.14-49.09V6.35h-17.87v123.9Z"/><path class="cls-1" d="M1442.18,96.34c0,9.67.49,19.59,1.47,33.06l-2.45.25c-2.45-9.55-4.53-16.28-8.45-25.96l-40.16-97.33h-39.79v171.4h17.51l-.12-99.05c0-10.04-.49-21.43-1.47-32.69l2.57-.37c2.33,9.3,4.41,15.92,8.94,27.06l43.22,105.05h36.12V6.35h-17.38v89.99Z"/><path class="cls-1" d="M1646.64,6.35l-19.78,88.49c-10.14-.09-20.34.38-30.37.42-19.7-.22-41.58-.08-61.15-.25,0,0-.09,15.68-.09,15.68,7.14.14,15.23.12,23.67.08-2.42,32.62-11.23,46.66-23.05,46.66-13.96,0-20.57-15.18-20.57-47.63v-49.09c0-33.06,6.98-43.71,20.93-43.71,12.61,0,20.45,2.62,20.69,45.47l38.32-.04c-.49-42.12-20.32-59.26-58.77-59.26-40.52,0-60.97,23.75-60.97,70.89v36.12c0,46.77,16.04,69.66,44.81,69.66,25.83,0,37.22-18.85,42.97-50.81l2.82.61c.74,24.01.16,31.62.16,48.12h30.2v-66.84c7.17.18,13.98.49,20.05,1.04,2.14.2,4.26.4,6.37.62l-14.57,65.19h17.38l7.1-33.42,2.82-13.59,3.35-15.79c5.08,1.13,9.88,2.69,14.2,5.09,9.89,6.07,20.6,13.13,26.59,29.37l5.81,28.34h40.89l-38.69-171.4h-41.14ZM1660.76,98.46c-5.98-1.41-11.85-2.21-17.71-2.76l4.2-19.81c3.18-15.3,5.51-27.79,7.47-41.5h2.57c1.84,13.71,4.04,26.2,7.22,41.5l5.15,24.78c-2.92-.81-5.87-1.59-8.9-2.21Z"/><polygon class="cls-1" points="1776.43 6.35 1737.13 6.35 1737.13 177.75 1826.63 177.75 1826.63 162.69 1776.43 162.69 1776.43 6.35"/><path class="cls-1" d="M1887.91,3.16c-41.38,0-62.32,24.24-62.32,73.46v31.1c0,48.97,20.94,73.21,62.32,73.21s62.32-24.24,62.32-73.21v-31.1c0-49.22-20.81-73.46-62.32-73.46ZM1910.07,128.9c0,26.94-6.73,38.08-22.04,38.08s-22.16-11.14-22.16-38.08V56.79c0-28.04,6.73-39.79,22.04-39.79s22.16,11.75,22.16,39.79v72.11Z"/><path class="cls-1" d="M2113.08,6.35l-15.67,96.6c-2.45,15.06-4.04,25.71-6.12,41.26h-2.69c-1.47-15.55-2.69-25.96-4.78-40.89l-13.71-96.97h-33.3l-13.22,96.84c-1.96,14.94-3.18,25.22-4.9,41.14h-2.57c-1.59-15.92-2.82-26.2-5.39-41.14l-15.92-96.84h-39.91l31.46,171.4h39.06l10.9-80.56c1.84-12.85,3.31-24.61,5.14-41.38h2.57c1.84,16.77,3.31,28.28,5.14,41.14l11.88,80.81h38.81l30.73-171.4h-17.51Z"/></svg>